/* XPM */
static char * blood01_xpm[] = {
"125 111 3 1",
" 	c None",
".	c #BF1818",
"+	c #DF2727",
"                                                                                                                             ",
"                                                                                                                             ",
"                                                                                                                             ",
"                                                                                                                             ",
"                                                                                                                             ",
"                                                                                                                             ",
"                                                                                                                             ",
"                                                                                                                             ",
"                                                                                                                             ",
"                                                                                                                             ",
"                                                                                                                             ",
"                                                                                                                             ",
"                                                                                                                             ",
"                                                                                                                             ",
"                                                                                                                             ",
"                                                                                                                             ",
"                                                                                                                             ",
"                                                                                                                             ",
"                                                                                                                             ",
"                                                                                                                             ",
"                                                                                                                             ",
"                                                                                                                             ",
"                                                                                                                             ",
"                                                                                                                             ",
"                                                                                                                             ",
"                                                                                                                             ",
"                                                                                                                             ",
"                                                                                                                             ",
"                                                                                                                             ",
"                                                                                                                             ",
"                                                                                                                             ",
"                                                                                                                             ",
"                                                                                                                             ",
"                                                                                                                             ",
"                                                                                                                             ",
"                                                                                                                             ",
"                                                                                                                             ",
"                                                                                                                             ",
"                                                                                                                             ",
"                                                                                                                             ",
"                                                                                                                             ",
"                                                                                                                             ",
"                                                                                                                             ",
"                                                  .....    ...                                                               ",
"                                                  ......  +++..  ....                                                        ",
"                                          .........+++++ .+++++ ..+++.                                                       ",
"                                          ..++++...+++++ .+++++.+++++.   ....                                                ",
"                                         ...++++++ .++++  .++++.+++++.  ..++++                                               ",
"                                         ..+++++++++++++ .+++..++++++ ...+++++.                                              ",
"                                          .+++++++++++++..+++..+++  ..++++++++.                                              ",
"                                           .++++++++.++++.++..+++...+++++.....                                               ",
"                                            ......+++.++++++.+++...+++++..                                                   ",
"                                        ....    ...+++.+++++++++..+++++.      ........                                       ",
"                                       .+++..    ..++++++++++++..+++++.........+++++..                                       ",
"                                       .+++++.......+++++++++++.+++++..+++++++++++++..                                       ",
"                                       ...++++++++++.+++++++++++++++++++++.......+++..                                       ",
"                                        ....++....++++++++++++++++++++......   ......                                        ",
"                                           ..... ...+++++++++++++++......                                                    ",
"                                               ....++++++++++++++++++++....                                                  ",
"                                              ...+++++++++++++++++++++++++....                                               ",
"                                            ....+++++++++++++++++++++.++++++....                                             ",
"                                         ......+++.+++++++++++++++++++....++++++.....                                        ",
"                                        ..+++++++......+++++++++++.++++  .....+++.+++..                                      ",
"                                        ..+++++...   .++++.+++++++..+++.    ...++++++..                                      ",
"                                        ..+++++   ....++..++++.+++..++++.     ...++++..                                      ",
"                                        ..+++++  ...++++ .++++.+++...++++.      ..+++.                                       ",
"                                          ....  ..++++++ .+++..+++. ..+++.       ....                                        ",
"                                                ..++++++ .+++..+++.  .++++.                                                  ",
"                                                ..++++++ .++. ..++.   .+++..                                                 ",
"                                                ..+++++  .++. ..++.    .+++..                                                ",
"                                                 ....   .+++   .+++     .+++.                                                ",
"                                                        .++.   ..++.     .+++...                                             ",
"                                                      ..+++..   .++.      ..+...                                             ",
"                                                     ..++++..   .++.       ..+...                                            ",
"                                                     ..++++..   .++..       ..++....                                         ",
"                                                     ..++++..  ..++++.      ..+++++...                                       ",
"                                                      .......  ..+++++.     ...+++++...                                      ",
"                                                        ....   ..+++++.      ...++++...                                      ",
"                                                                ..++++..      ...+++...                                      ",
"                                                                ...+++..        ......                                       ",
"                                                                 ..+++..          ..                                         ",
"                                                                  .....                                                      ",
"                                                                   ...                                                       ",
"                                                                                                                             ",
"                                                                                                                             ",
"                                                                                                                             ",
"                                                                                                                             ",
"                                                                                                                             ",
"                                                                                                                             ",
"                                                                                                                             ",
"                                                                                                                             ",
"                                                                                                                             ",
"                                                                                                                             ",
"                                                                                                                             ",
"                                                                                                                             ",
"                                                                                                                             ",
"                                                                                                                             ",
"                                                                                                                             ",
"                                                                                                                             ",
"                                                                                                                             ",
"                                                                                                                             ",
"                                                                                                                             ",
"                                                                                                                             ",
"                                                                                                                             ",
"                                                                                                                             ",
"                                                                                                                             ",
"                                                                                                                             ",
"                                                                                                                             ",
"                                                                                                                             ",
"                                                                                                                             ",
"                                                                                                                             "};
