/* XPM */
static char * blood03_xpm[] = {
"125 111 3 1",
" 	c None",
".	c #BF1818",
"+	c #DF2727",
"                                                                                                                             ",
"                                                                                                                             ",
"                                                                                                                             ",
"                                                                                                                             ",
"                                                                                                                             ",
"                                                                                                                             ",
"                                                                                                                             ",
"                                                                    ...                                                      ",
"                                                                    ...                                                      ",
"                                                                  ....                                                       ",
"                                                                 .....                                                       ",
"                                                                ..+++.                                                       ",
"                                                               ..+++..                                                       ",
"                                                      .      ...+++..    ..                                                  ",
"                                                            ....++...                                                        ",
"                                   ..                       ...+++...                                                        ",
"                                   ...                     ...++++...             ..                                         ",
"                                   ...                     ..++++....                                                        ",
"                                   ....     ...            .+++++....                                                        ",
"                                   .....                  ..+++++...                                                         ",
"                                   .....                  ..+++++...                                                         ",
"                                   ...++.       ..        .++++++..      ..                        ..                        ",
"                        ..         .++++..      ...       .++++++++     ..            .++.....                               ",
"                                   ..++++..      ..      ..++++++++    ..+          .++++.                                   ",
"                                   ..+++++..      ..     ..+++++++.   ..+          .+++.                                     ",
"                             ..    ..++++++.      ..     .++++++++.   ++         ..+++++                                     ",
"             .               ...   ...++++++.            .+++++++..  ..         ..+++.              ....       ..            ",
"                             .....  ..++++++..           ...+++++.              ..++             .....                       ",
"                              .........+++++...           .......              ..+++            .++++                        ",
"                              ..+++....++++++..                                ..++            ..++.                         ",
"                  ....        ..++++...++++++...                              ...++            .....                         ",
"                  ......       ..+++++..++++++++.                             ....               ..                          ",
"                  ...+++.      ..++++++++++++++++                                                                            ",
"               ... ..++++..    ...+++++++++++++++.                                                                           ",
"               .....+++++++.    ..++++++++++++++++.                                                                          ",
"               ...++++...++++.   ..+++++++++++++++.                        .                                                 ",
"                ..+++.  ..++++.  ....+++++++++++++.                                                                          ",
"                 .+++..   ..++++  ......+++++++++.        .                                                                  ",
"                  .+++..    .....  .....+++++++++.                  .                                                        ",
"                   .+++..     ....   .....+++++++.                                                                           ",
"                   .+++...      ..     .....+++..                                                                            ",
"                    .+++..                 ......                                        ..............                      ",
"                       ...                             .................              ....++++++++++++...                    ",
"                                                 ..............+++++++........      ....++++++++++++++++++                   ",
"                                                 ..+++++++++++++++++++......        ..++++.+++++............                 ",
"                                              .++++++++++++++++++++++.....         ...+++++++................                ",
"                                            .....++++.....++++++.......           ...++++++......             ..             ",
"                            ..              ..................++++++..            ..++++++...                   .            ",
"                              ..                      .......+++++++++...         ..++++++..                    .            ",
"                  .                                      .....++++++++....        ..++++++.                      .           ",
"                                                          ....+++++++++++..       ..+++++.                       ..          ",
"                                                                +++++++++++..      .+++++.                       ..          ",
"                                                                   +++++++++...     .....                        ..          ",
"                                                                         .....  .                                ..          ",
"                  .........                                                                                      ..          ",
"       ..   ... ...............                         +                               .........                ..          ",
"                .....+++++++++++...                                                 ...............              .           ",
"                 .....+++++++++++++..                                               ....        ....             .           ",
"                   ......+++++++++++..                            .....                          ...             .           ",
"                    ......++++++++++++..                 .....+++++++++...                       ...                         ",
"                      .......+++++++++...                 ....++++++++++....                      ...                        ",
"                       .....++++++++++++...                 ...++++++++++++...                    ...                        ",
"                       ...+++++++++++++++...                 ++++++.+++++++...                                   ..          ",
"                     .....+++++++++++++++++..             ....++++++++.....                           ...                    ",
"                    ....+++++++++++++++++++++.         ......+++++++....        ....                   ..                    ",
"                   ....++++++++++++++++++++++.       ...+++++++++++...          .....                  ..                    ",
"                  ....+++++......++++++++++++       .....++++++++++.            .++++.                 ..                    ",
"                  ...++++.......+++++++++++.         ...........++++.            ..+++.          .     ..                    ",
"                 ...+++........++++++++++..                 .....++++..            .+++                ..                    ",
"                 ...++........+++++++++..                      ....+++...            ...                                     ",
"                 ......   ...+++++++++..                        ....+++..             ..                                     ",
"                 .....   ....++++.....                            ..+++...                                                   ",
"                 ....   ...++++...                                 ..+++..       .....                                       ",
"             ..  ..    ...++++..                                    ..+++.       ......                  ..                  ",
"                       ..++++..                                      ..++.      ..+++++..                ..                  ",
"                      ..++++..                                        ....      ..++++++++.                                  ",
"                      ..+++.                                ......    ....       .+++++++++.                                 ",
"             ..      ..+++.                              ............. ..        ..++++++++++                                ",
"            .        .+++.         ..                   ......++++++.......       .....+++++++                               ",
"            .       ..++.         .     ........       ...+++++++++++++....         ....+++++++                              ",
"                    ....               ..+++++++      ...+++++++++++++++++.          ....++++++..                            ",
"                    ...                ..+++++++     ...+++++++++++++++++..           ....++++++..                           ",
"                    ...               .++.+++++.     .++++++++++++++++++++..           ....++++++...                         ",
"                   ...              ..+++....       ..++++++++++++++++++++..           ....+++++++...                        ",
"                   ...             ..+++.           ..++++++++++++++.+++++..            ....+++++++..                        ",
"                   ..              .+++.           ..+++.+++++.+++++..++++..    ..       ...++++++++..                       ",
"                  ...             ..++.            .+++...++++.+++++...++++.      ..      ...+++++++..                       ",
"                  ..              .++.      .      .++....++++..++++...++++.              ...++++++++..                      ",
"                  ..             .+++             .+++.. .+++...++++....+++..              ...++++  ++..                     ",
"                  ..            .+++.            ..++... ..++...++++. ..++++.               ..++++   ++.                     ",
"                  .             .++.             .+++.   ..++. ..+++.  ..+++.               ...++++  ++..                    ",
"                  .            ....             ..++..   ..++   .+++.   .++++                ..++++   ++..                   ",
"                              ....              .++.     ....   .+++     .+++                 ..++++  +++.                   ",
"                              ....             .+++.     ...    .+++      .++.                ..++++   +++                   ",
"                              ...             ..++.      ...    ..++       ...                 ..++++    +                   ",
"                  .          ...              .++.       ..      .++       ...                   ..++    +                   ",
"                  .          ...             ..++                ...        ..                     ..    +                   ",
"                  .         ...             .....                ...        ..                                               ",
"                  .         ..              ...                  ...                                                         ",
"                  .         ..             ....                                                                              ",
"                                           ...                                                                               ",
"                                                                                                                             ",
"                  .                                                                                       ..                 ",
"                 ...                                                                                                         ",
"                                                                                                                             ",
"                                                                                                                             ",
"                                                                                                                             ",
"                                                                                                                             ",
"                                                                                                                             ",
"                                                                                                                             ",
"                                                                                                                             "};
