/* XPM */
static char * shroom_xpm[] = {
"64 64 599 2",
"  	c None",
". 	c #69163F",
"+ 	c #6A163F",
"@ 	c #6B163F",
"# 	c #68163E",
"$ 	c #882444",
"% 	c #892444",
"& 	c #8E2C44",
"* 	c #923345",
"= 	c #923644",
"- 	c #933744",
"; 	c #923845",
"> 	c #933745",
", 	c #933645",
"' 	c #902F45",
") 	c #8C2645",
"! 	c #882543",
"~ 	c #D13E54",
"{ 	c #E8485B",
"] 	c #F2575A",
"^ 	c #FD645B",
"/ 	c #FD685A",
"( 	c #FE705B",
"_ 	c #FE6F5C",
": 	c #FE6D5C",
"< 	c #FE6C5C",
"[ 	c #FE6B5C",
"} 	c #F65E5C",
"| 	c #EC4C5B",
"1 	c #C93E51",
"2 	c #6B163E",
"3 	c #B39560",
"4 	c #B99962",
"5 	c #BA9862",
"6 	c #E68A65",
"7 	c #F28567",
"8 	c #F77360",
"9 	c #FD635A",
"0 	c #FD665A",
"a 	c #FD695A",
"b 	c #FD6C5A",
"c 	c #FE6E5B",
"d 	c #FE6D5B",
"e 	c #FE8262",
"f 	c #FE9067",
"g 	c #FA8D68",
"h 	c #F48768",
"i 	c #DF735E",
"j 	c #B4394D",
"k 	c #B4384D",
"l 	c #8B2743",
"m 	c #E9C876",
"n 	c #FED77E",
"o 	c #FED67D",
"p 	c #FCBD78",
"q 	c #FCB177",
"r 	c #FC8C67",
"s 	c #FD9B6B",
"t 	c #FCB377",
"u 	c #FCB277",
"v 	c #F8976C",
"w 	c #F04E5B",
"x 	c #EF4D5B",
"y 	c #952845",
"z 	c #6A153F",
"A 	c #6B1740",
"B 	c #B37459",
"C 	c #B47559",
"D 	c #F0CB77",
"E 	c #FED87D",
"F 	c #FED77D",
"G 	c #FDC67A",
"H 	c #FDC078",
"I 	c #FD9668",
"J 	c #FD6659",
"K 	c #FE6C5A",
"L 	c #FE6C5B",
"M 	c #FDA76D",
"N 	c #FDC179",
"O 	c #FDC279",
"P 	c #FDC178",
"Q 	c #FAAC71",
"R 	c #F58267",
"S 	c #F38167",
"T 	c #BF4B50",
"U 	c #AB304A",
"V 	c #9C2A47",
"W 	c #7F2D44",
"X 	c #FBB279",
"Y 	c #FCB479",
"Z 	c #FDD27D",
"` 	c #FED97E",
" .	c #FED87E",
"..	c #FDA76A",
"+.	c #FD6359",
"@.	c #FD645A",
"#.	c #FE645A",
"$.	c #FDB971",
"%.	c #FED97D",
"&.	c #FECC7A",
"*.	c #FDB678",
"=.	c #FCB578",
"-.	c #F16E61",
";.	c #EB4A5A",
">.	c #C2384F",
",.	c #64143C",
"'.	c #952D45",
").	c #AA384B",
"!.	c #B0484F",
"~.	c #FCC17A",
"{.	c #FDC37B",
"].	c #FED57D",
"^.	c #FECF7B",
"/.	c #FECC7B",
"(.	c #FD9F69",
"_.	c #FCAE6E",
":.	c #FED27B",
"<.	c #FEDA7D",
"[.	c #FEC977",
"}.	c #FEA96F",
"|.	c #FDA76F",
"1.	c #F56E5F",
"2.	c #F1535A",
"3.	c #D54453",
"4.	c #A8344B",
"5.	c #A3344B",
"6.	c #67153E",
"7.	c #B03349",
"8.	c #EF4D5A",
"9.	c #EF605C",
"0.	c #FED57E",
"a.	c #FDB778",
"b.	c #FD9067",
"c.	c #FE635A",
"d.	c #FC9C6B",
"e.	c #FDB677",
"f.	c #FEC579",
"g.	c #FEC173",
"h.	c #FF905F",
"i.	c #FF8F5E",
"j.	c #FE6F5B",
"k.	c #FC5F5A",
"l.	c #F3535A",
"m.	c #E9475A",
"n.	c #DA4558",
"o.	c #66143D",
"p.	c #F0595B",
"q.	c #FCBB74",
"r.	c #FDBD74",
"s.	c #FEC274",
"t.	c #FEC374",
"u.	c #FDAC70",
"v.	c #FDA46F",
"w.	c #FD8563",
"x.	c #FD625A",
"y.	c #FC8D66",
"z.	c #FDA26E",
"A.	c #FDAE70",
"B.	c #FDBE73",
"C.	c #FDAB6B",
"D.	c #FE845D",
"E.	c #FE825C",
"F.	c #FD605B",
"G.	c #F6575B",
"H.	c #EE4D5A",
"I.	c #DE4A57",
"J.	c #66143C",
"K.	c #6A163E",
"L.	c #AF3349",
"M.	c #EF4E5A",
"N.	c #FB5D5B",
"O.	c #FC5F5B",
"P.	c #FE7B5A",
"Q.	c #FF825A",
"R.	c #FE815B",
"S.	c #FD6B5A",
"T.	c #FD615A",
"U.	c #FC615B",
"V.	c #FC605B",
"W.	c #FB5F5B",
"X.	c #FA5B5B",
"Y.	c #E65358",
"Z.	c #65143C",
"`.	c #6B1840",
" +	c #AD304D",
".+	c #C33351",
"++	c #D43D54",
"@+	c #ED4C5A",
"#+	c #F3525A",
"$+	c #F4525A",
"%+	c #FB635A",
"&+	c #FD625B",
"*+	c #FC8164",
"=+	c #FCA170",
"-+	c #FCA16F",
";+	c #FCA06F",
">+	c #FC8966",
",+	c #FC625B",
"'+	c #FB605B",
")+	c #FB5E5C",
"!+	c #FA5C5C",
"~+	c #F1555A",
"{+	c #CC3953",
"]+	c #CF3B54",
"^+	c #69153F",
"/+	c #B8324F",
"(+	c #D83A57",
"_+	c #DF4058",
":+	c #ED4B5A",
"<+	c #F04F5A",
"[+	c #F04E5A",
"}+	c #FA5D5B",
"|+	c #FD615B",
"1+	c #FCAF76",
"2+	c #FCB076",
"3+	c #FC946A",
"4+	c #FB5E5B",
"5+	c #FB5F5C",
"6+	c #FB5D5C",
"7+	c #FA5B5C",
"8+	c #F5565B",
"9+	c #E14159",
"0+	c #E3435A",
"a+	c #6B153F",
"b+	c #C03851",
"c+	c #E44459",
"d+	c #E74759",
"e+	c #EC4B5A",
"f+	c #F7585B",
"g+	c #F7595B",
"h+	c #FD675A",
"i+	c #FE715B",
"j+	c #FE9C68",
"k+	c #FEC77A",
"l+	c #FEC87A",
"m+	c #FEC779",
"n+	c #FDB373",
"o+	c #FD956A",
"p+	c #FD7A61",
"q+	c #FD635B",
"r+	c #F95A5B",
"s+	c #F85A5B",
"t+	c #FCAD6E",
"u+	c #FCB671",
"v+	c #FDB671",
"w+	c #FCB471",
"x+	c #FAA96E",
"y+	c #EE4C5A",
"z+	c #EC4B5B",
"A+	c #6B153E",
"B+	c #6A153E",
"C+	c #C43C51",
"D+	c #EA495A",
"E+	c #EB4959",
"F+	c #EC4B59",
"G+	c #EE4C59",
"H+	c #FC605C",
"I+	c #FD6D5A",
"J+	c #FF795B",
"K+	c #FEA96B",
"L+	c #FEC479",
"M+	c #FDAA72",
"N+	c #FD8765",
"O+	c #F6565A",
"P+	c #F6565B",
"Q+	c #FDCC79",
"R+	c #FDC97A",
"S+	c #F4515B",
"T+	c #F2505C",
"U+	c #6C153F",
"V+	c #BD3051",
"W+	c #BF3051",
"X+	c #DC4156",
"Y+	c #F07662",
"Z+	c #F8A26F",
"`+	c #F9A36F",
" @	c #FDC575",
".@	c #FC8764",
"+@	c #FD655A",
"@@	c #FE6B5A",
"#@	c #FEA56A",
"$@	c #FEBA71",
"%@	c #FF8B61",
"&@	c #FE755D",
"*@	c #FC8362",
"=@	c #FBA36E",
"-@	c #FBA46E",
";@	c #FDD17C",
">@	c #F9A270",
",@	c #F9A771",
"'@	c #C83551",
")@	c #CA3652",
"!@	c #69153E",
"~@	c #65143D",
"{@	c #CE3556",
"]@	c #D23556",
"^@	c #E04158",
"/@	c #EA4859",
"(@	c #F07F65",
"_@	c #FCB278",
":@	c #FCB577",
"<@	c #FED87F",
"[@	c #FC8F66",
"}@	c #FEA46B",
"|@	c #FEB76F",
"1@	c #FF7D5B",
"2@	c #FD8D65",
"3@	c #FDB375",
"4@	c #FDB476",
"5@	c #FED37E",
"6@	c #FCB878",
"7@	c #DA3A57",
"8@	c #DC3B58",
"9@	c #D13556",
"0@	c #D73A57",
"a@	c #DD3E57",
"b@	c #E97C64",
"c@	c #FBB077",
"d@	c #FBB177",
"e@	c #FDC27A",
"f@	c #F78364",
"g@	c #F5575A",
"h@	c #F5565A",
"i@	c #F85B59",
"j@	c #FD605A",
"k@	c #FD8361",
"l@	c #FDA26B",
"m@	c #FDA36B",
"n@	c #FEA36B",
"o@	c #FD8F64",
"p@	c #FD6E5B",
"q@	c #FD665B",
"r@	c #FD7E5F",
"s@	c #FE9D67",
"t@	c #FE9E68",
"u@	c #FED17A",
"v@	c #FECF7C",
"w@	c #FE8D69",
"x@	c #FD9169",
"y@	c #E34258",
"z@	c #E54359",
"A@	c #CE3456",
"B@	c #D03556",
"C@	c #D33656",
"D@	c #E37963",
"E@	c #FBAF77",
"F@	c #FCB077",
"G@	c #FCAE76",
"H@	c #F37862",
"I@	c #EF4E59",
"J@	c #F04F59",
"K@	c #F55659",
"L@	c #FC605A",
"M@	c #FC6F5A",
"N@	c #FF845B",
"O@	c #FF875C",
"P@	c #FECF78",
"Q@	c #FE635C",
"R@	c #EB4859",
"S@	c #EC485A",
"T@	c #CD3456",
"U@	c #CF3456",
"V@	c #D74C58",
"W@	c #E0685F",
"X@	c #E1675E",
"Y@	c #EF6F61",
"Z@	c #F17062",
"`@	c #F05C5C",
" #	c #EE4E59",
".#	c #EF4F59",
"+#	c #F15159",
"@#	c #F15259",
"##	c #F25259",
"$#	c #F05159",
"%#	c #F05059",
"&#	c #F15659",
"*#	c #F35E59",
"=#	c #F3605A",
"-#	c #F38062",
";#	c #F28463",
">#	c #F28564",
",#	c #F27D62",
"'#	c #F0505A",
")#	c #ED495A",
"!#	c #CC3355",
"~#	c #D23656",
"{#	c #D43756",
"]#	c #D53856",
"^#	c #EE4D59",
"/#	c #EE4E5A",
"(#	c #ED4D59",
"_#	c #ED4C59",
":#	c #EC4A59",
"<#	c #ED495B",
"[#	c #6A1740",
"}#	c #68153E",
"|#	c #B12D4E",
"1#	c #B42D4F",
"2#	c #C83354",
"3#	c #E24357",
"4#	c #E34457",
"5#	c #E24457",
"6#	c #E34557",
"7#	c #E34458",
"8#	c #E24458",
"9#	c #ED4B59",
"0#	c #E24258",
"a#	c #E24358",
"b#	c #C53D51",
"c#	c #C73D52",
"d#	c #6C163F",
"e#	c #6A1640",
"f#	c #B32D4F",
"g#	c #CF3556",
"h#	c #D03555",
"i#	c #D13555",
"j#	c #D03455",
"k#	c #CF3455",
"l#	c #CE3455",
"m#	c #CF3454",
"n#	c #D03454",
"o#	c #E64558",
"p#	c #EB4A59",
"q#	c #E64559",
"r#	c #D13455",
"s#	c #D63858",
"t#	c #912246",
"u#	c #9B2448",
"v#	c #9C2448",
"w#	c #9D2448",
"x#	c #9C2447",
"y#	c #9B2347",
"z#	c #9A2447",
"A#	c #9D2548",
"B#	c #9F2649",
"C#	c #A02649",
"D#	c #9F2549",
"E#	c #A02549",
"F#	c #9D2447",
"G#	c #9E2548",
"H#	c #AC2E4A",
"I#	c #B1314A",
"J#	c #B1324B",
"K#	c #AD2F4B",
"L#	c #A32849",
"M#	c #68143E",
"N#	c #67143E",
"O#	c #66133D",
"P#	c #721840",
"Q#	c #721841",
"R#	c #711841",
"S#	c #6E163F",
"T#	c #67143D",
"U#	c #9F574F",
"V#	c #C6715D",
"W#	c #C87660",
"X#	c #CA7C63",
"Y#	c #CB7D63",
"Z#	c #CC7E64",
"`#	c #C7755F",
" $	c #C36D5B",
".$	c #A65B52",
"+$	c #B66957",
"@$	c #E68668",
"#$	c #EA8F6C",
"$$	c #EE9872",
"%$	c #EE9972",
"&$	c #E88C6B",
"*$	c #E38366",
"=$	c #BF6E5B",
"-$	c #67153D",
";$	c #BB735B",
">$	c #ED946F",
",$	c #F1A276",
"'$	c #F5B17F",
")$	c #F5B27F",
"!$	c #F4B07E",
"~$	c #F0A075",
"{$	c #EC926E",
"]$	c #C47860",
"^$	c #BC765D",
"/$	c #F09A72",
"($	c #F3A97B",
"_$	c #F8BC86",
":$	c #F8BD86",
"<$	c #F8BC85",
"[$	c #F8BB85",
"}$	c #F7BA84",
"|$	c #F3A97A",
"1$	c #C77F63",
"2$	c #B96E58",
"3$	c #C3755D",
"4$	c #DB8C69",
"5$	c #F19B72",
"6$	c #F4AA7B",
"7$	c #F8BE87",
"8$	c #FAC68B",
"9$	c #FBCD8F",
"0$	c #F8C087",
"a$	c #F5B581",
"b$	c #E5A979",
"c$	c #CB8A68",
"d$	c #B7775D",
"e$	c #D3785F",
"f$	c #E68667",
"g$	c #EB916D",
"h$	c #F09B72",
"i$	c #FACB8E",
"j$	c #FED796",
"k$	c #FDD796",
"l$	c #FBCB8E",
"m$	c #F6B681",
"n$	c #F19F74",
"o$	c #CC8162",
"p$	c #D88464",
"q$	c #ED946E",
"r$	c #F1A779",
"s$	c #F6B782",
"t$	c #F7BB85",
"u$	c #F8C088",
"v$	c #FBCC8E",
"w$	c #FDD696",
"x$	c #FDD494",
"y$	c #FCD091",
"z$	c #FAC489",
"A$	c #F6AB7A",
"B$	c #D08D67",
"C$	c #DB8866",
"D$	c #EF9971",
"E$	c #F9C189",
"F$	c #F9C188",
"G$	c #FDD695",
"H$	c #FBCA8D",
"I$	c #F7AE7D",
"J$	c #D18F68",
"K$	c #DB8966",
"L$	c #F09971",
"M$	c #F4AF7D",
"N$	c #F8C289",
"O$	c #FACC8F",
"P$	c #FDD797",
"Q$	c #F7AE7C",
"R$	c #F9C289",
"S$	c #FBCC8F",
"T$	c #FED797",
"U$	c #FED695",
"V$	c #FBC98C",
"W$	c #F7AD7B",
"X$	c #D18E68",
"Y$	c #DA8765",
"Z$	c #EF9770",
"`$	c #F2A476",
" %	c #F6B27F",
".%	c #F7B883",
"+%	c #FAC48A",
"@%	c #FBCA8E",
"#%	c #FAC288",
"$%	c #F9BB83",
"%%	c #F5B07C",
"&%	c #EF9970",
"*%	c #CC8060",
"=%	c #68153F",
"-%	c #D98564",
";%	c #ED956E",
">%	c #F09D73",
",%	c #F5AB7B",
"'%	c #F6B480",
")%	c #F9C088",
"!%	c #F9C38A",
"~%	c #FAC38A",
"{%	c #F8B881",
"]%	c #F7AF7C",
"^%	c #EB8E6B",
"/%	c #C8775D",
"(%	c #8E4F4B",
"_%	c #91524D",
":%	c #C77F61",
"<%	c #EF9C72",
"[%	c #EFA074",
"}%	c #EF9F74",
"|%	c #EF9F73",
"1%	c #EF9C71",
"2%	c #EE9870",
"3%	c #CD8564",
"4%	c #904D4C",
"5%	c #8A4849",
"6%	c #BA715A",
"7%	c #ED936E",
"8%	c #EC936E",
"9%	c #EC936D",
"0%	c #EC926D",
"a%	c #EC916D",
"b%	c #C3775F",
"c%	c #8C4849",
"d%	c #944F4C",
"e%	c #944E4C",
"f%	c #934E4C",
"g%	c #8D4A4A",
"h%	c #66153D",
"                                                                                                                                ",
"                                                                                                                                ",
"                                                                                                                                ",
"                                                                                                                                ",
"                                                                                                                                ",
"                                                                                                                                ",
"                                                                                                                                ",
"                                                                                                                                ",
"                                                                                                                                ",
"                                                                                                                                ",
"                                                                                                                                ",
"                                                                                                                                ",
"                                                  . + + + + + + + + + @ @ + + #                                                 ",
"                                                  $ % & * = - - ; > > , , ' ) !                                                 ",
"                                            + + @ ~ { ] ^ / ( ( _ _ : < [ } | 1 2 @                                             ",
"                                            3 4 5 6 7 8 9 0 a b c c d e f g h i j k l                                           ",
"                                        + @ m n o p q r 9 9 9 / c c c s t t u v w x y z A                                       ",
"                                        B C D E F G H I 9 9 9 J K d L M N O P Q R S T U V                                       ",
"                                    + W X Y Z `  .E  ...+.9 9 9 @.@.#.$.%.%.%.&.*.=.-.;.>.z ,.                                  ",
"                                  '.).!.~.{.].` ` ^./.(.9 9 9 9 @.@.@._.&.:.<.[.}.|.1.2.3.4.5.                                  ",
"                              6.+ 7.8.9.0.n ` ` E N a.b.c.9 9 9 9 9 +.d.e.f.%.g.h.i.j.k.l.m.n.+ o.                              ",
"                              6.+ 7.8.p.q.r.s.t.t.u.v.w.c.9 9 9 9 9 x.y.z.A.B.C.D.E./ F.G.H.I.@ J.                              ",
"                              6.K.L.H.M.N.O.P.Q.R.S.9 x.x.x.9 9 x.x.T.x.9 x.x.x.T.U.V.W.N.X.Y.z Z.                              ",
"                          `.+  +.+++@+@+#+$+%+/ / 9 &+x.x.*+=+-+;+>+T.x.&+,+,+U.V.'+W.W.)+!+~+{+]+@ @                           ",
"                          + ^+/+(+_+:+:+<+[+}+|+|+U.U.T.T.>+1+2+1+3+T.x.,+,+U.V.W.4+W.5+6+7+8+9+0+a+a+                          ",
"                          + z b+c+d+e+:+f+g+'+&+|+,+,+h+i+j+k+l+m+n+o+p+q+,+U.4+r+s+t+u+v+w+x+y+z+A+a+                          ",
"                          @ B+C+D+E+F+G+H+|+U.|+U.,+U.I+J+K+ . .n L+M+N+&+,+,+}+O+P+Q+ . .n R+S+T+U+B+                          ",
"                      ^+Z.V+W+X+E+Y+Z+`+ @ @.@|+U.,+,++@@@#@E  .n $@%@&@q+&+|+*@=@-@:. .`  .;@>@,@'@)@B+!@                      ",
"                      ^+~@{@]@^@/@(@_@:@<@ .[@U.U.U.U.x.#.}@E  . .|@1@c q+&+,+2@3@4@].` ` <@5@u 6@7@8@A+z                       ",
"                      ^+J.{@9@0@a@b@c@d@e@N f@g@h@g@g@i@j@k@l@m@n@o@p@q@U.U.U.r@s@t@u@ . . .v@w@x@y@z@A+z                       ",
"                      z ~@A@B@9@C@D@E@E@F@G@H@<+I@J@J@K@k.L@T.x.&+9 U.V.V.V.V.M@N@O@P@ . . .&.Q@Q@R@S@A+z                       ",
"                      z J.T@U@9@]@V@W@X@Y@Z@`@I@M.I@ #.#+#@#+#####@#+#+#$#%#%#&#*#=#-#;#;#>#,#'#'#R@)#A+z                       ",
"                      + o.!#U@9@~#C@{#]#F+H.M.^#^# #^# #^# #/# #/# # #^#^#(#_#^#^#_#_#_#_#_#@+:#:#R@<#A+z                       ",
"                      [#}#|#1#2#~#~#C@{#3#4#4#5#3#5#5#5#4#4#5#5#6#4#7#5#8#5#5#4#6#4#E+9#9#9#E+0#a#b#c#d#e#                      ",
"                          @ B+f#g#9@9@h#i#j#h#k#k#k#k#k#j#k#k#k#l#k#k#k#k#k#m#j#n#i#o#E+:#p#q#r#s#B+a+                          ",
"                              t#u#v#v#v#w#x#u#u#y#z#y#A#B#C#D#D#D#D#E#E#E#w#y#x#F#G#H#I#J#J#K#D#L#                              ",
"                              ~@^+!@}#M#M#M#N#6.o.O#o.A+P#Q#Q#R#R#Q#Q#Q#Q#S#o.o.M#!@z a+a+z a+^+,.                              ",
"                                                  T#T#U#V#W#X#Y#Y#Z#Y#`# $.$T#o.                                                ",
"                                                  !@!@+$@$#$$$%$%$%$$$&$*$=$^+-$                                                ",
"                                                  !@!@;$>$,$'$)$)$'$!$~${$]$^+6.                                                ",
"                                                  . ^+^$/$($_$:$<$[$}$|$/$1$+ #                                                 ",
"                                              ^+e#2$3$4$5$6$7$8$9$9$9$0$a$b$c$d$!@^+                                            ",
"                                              . z e$f$g$h$|$7$i$j$k$k$l$0$m$n$o$z ^+                                            ",
"                                              . + p$q$r$s$t$u$v$k$w$w$x$y$z$A$B$z ^+                                            ",
"                                              z + C$D$!$E$F$F$v$k$w$j$k$G$H$I$J$z ^+                                            ",
"                                              + + K$L$M$E$E$N$O$j$w$P$k$w$H$Q$J$+ !@                                            ",
"                                              + + K$L$M$E$E$R$S$j$T$T$j$U$V$W$X$z ^+                                            ",
"                                              + + Y$Z$`$ %.%E$+%@%l$@%#%$%%%&%*%+ =%                                            ",
"                                              . + -%;%>%,%'%)%E$!%+%~%{%]%`$^%/%!@^+                                            ",
"                                                  (%_%:%D$<%[%}%[%[%|%1%2%3%4%5%                                                ",
"                                                  . + 6%7%7%8%8%9%0%0%0%a%b%+ #                                                 ",
"                                                      c%d%e%d%e%d%d%f%f%e%g%                                                    ",
"                                                      o.+ + + + + + + + + h%                                                    ",
"                                                                                                                                ",
"                                                                                                                                ",
"                                                                                                                                ",
"                                                                                                                                ",
"                                                                                                                                ",
"                                                                                                                                ",
"                                                                                                                                ",
"                                                                                                                                ",
"                                                                                                                                ",
"                                                                                                                                ",
"                                                                                                                                "};
